# xmcd CD database file
#
# Track frame offsets:
#	183
#	14735
#	28530
#	41545
#	56718
#	69003
#	83763
#	97808
#	112123
#	127093
#	136653
#	147475
#	161283
#	175780
#	190050
#	204393
#	218248
#	232435
#	244763
#	257905
#	272000
#	281980
#	293433
#	305208
#	319073
#	333458
#
# Disc length: 4607 seconds
#
# Revision: 0
# Processed by: cddbd v1.5.2PL0 Copyright (c) Steve Scherf et al.
# Submitted via: CDex 1.51
#
DISCID=8911fd1a
DTITLE=Hall, Adelaide - Crooning Blackbird (Jazz Archives No. 60)
DYEAR=1900
DGENRE=Jazz
TTITLE0=Creole Love Call [w Duke Ellington Orch, 1927]
TTITLE1=The Blues I Love to Sing [w Duke Ellington Orch, 1927]
TTITLE2=Chicago Stomp Down [w Duke Ellington Orch and Jabbo Smith, 1927]
TTITLE3=I Must Have That Man [w Lew Leslie's Blackbirds Orch, 1928]
TTITLE4=Baby [w Lew Leslie's Blackbirds Orch, 1928]
TTITLE5=Rhapsody in Love [w Joe Turner, Francis J. Carter, 1931]
TTITLE6=Minnie the Moocher [w Joe Turner, Francis J. Carter, 1931]
TTITLE7=Too Darn Fickle [w Joe Turner, Francis J. Carter, 1931]
TTITLE8=Doin' What I Please [w Joe Turner, Francis J. Carter, 1931]
TTITLE9=I Got Rhythm [w Joe Turner, Francis J. Carter, 1931]
TTITLE10=I'm Red Hot from Harlem [w Joe Turner, Francis J. Carter, 1931]
TTITLE11=Strange as It Seems [w Jimmy Dorsey, Art Tatum et. al., 1932]
TTITLE12=I'll Never Be the Same [w Jimmy Dorsey, Art Tatum et. al., 1932]
TTITLE13=You Gave Me Everything but Love [w Art Tatum, Francis J. Carter, 1932]
TTITLE14=This Time, It's Love [w Art Tatum, Francis J. Carter, 1932]
TTITLE15=I Must Have That Man (tk C) [w Duke Ellington Orch, 1933]
TTITLE16=Baby (tk C) [w Duke Ellington Orch, 1933]
TTITLE17=Drop Me Off in Harlem [w Mills Blue Rhythm Band, 1933]
TTITLE18=Reachin' for the Cotton Moon [w Mills Blue Rhythm Band, 1933]
TTITLE19=I'm in the Mood for Love [w Joe Turner, 1936]
TTITLE20=Truckin' [w Joe Turner, 1936]
TTITLE21=East of the Sun [w John Ellsworth Orch incl Stephane Grappelli, Alix Combelle, 1936]
TTITLE22=Solitude [w John Ellsworth Orch incl Stephane Grappelli, Alix Combelle, 1936]
TTITLE23=That Old Feeling [w Fats Waller, organ, 1938]
TTITLE24=I Can't Give You Anything but Love [w Fats Waller, organ, 1938]
TTITLE25='Tain't What You Do [w Fela Sowande, organ, 1939]
EXTD=
EXTT0=
EXTT1=
EXTT2=
EXTT3=
EXTT4=
EXTT5=
EXTT6=
EXTT7=
EXTT8=
EXTT9=
EXTT10=
EXTT11=
EXTT12=
EXTT13=
EXTT14=
EXTT15=
EXTT16=
EXTT17=
EXTT18=
EXTT19=
EXTT20=
EXTT21=
EXTT22=
EXTT23=
EXTT24=
EXTT25=
PLAYORDER=
